<svg  version="1.1" xmlns:xlink="http://www.w3.org/1999/xlink"  width="1000" height="1000" viewBox="0 0 1000 1000"><rect width="1000" height="1000" fill="#6936f5"></rect><g transform="matrix(0.7,0,0,0.7,149.57575757575756,282.1265587044535)"><svg viewBox="0 0 396 247" data-background-color="#6936f5" preserveAspectRatio="xMidYMid meet" height="623" width="1000"  xmlns:xlink="http://www.w3.org/1999/xlink"><g id="tight-bounds" transform="matrix(1,0,0,1,0.2400000000000091,-0.09999999999999432)"><svg viewBox="0 0 395.52 247.2" height="247.2" width="395.52"><g><svg></svg></g><g><svg viewBox="0 0 395.52 247.2" height="247.2" width="395.52"><g><g><path d="M115.669 7.21c10.529 4.807 20.257 12.017 29.183 21.63l-20.256 23.347c-7.096-6.409-14.008-11.216-20.738-14.42-6.775-3.204-13.939-4.807-21.492-4.807-8.698 0-15.564 2.678-20.6 8.034-5.036 5.402-7.553 12.452-7.554 21.149 0 8.698 2.632 15.793 7.897 21.287 3.409 3.557 8.93 7.211 16.563 10.96l-63.652 0c-4.085-8.512-6.128-18.231-6.128-29.157 0-12.589 3.044-23.804 9.133-33.646 6.043-9.842 14.443-17.556 25.201-23.141 10.758-5.631 22.774-8.446 36.05-8.446 13.733 0 25.864 2.403 36.393 7.21zM150.346 174.413c0 13.504-3.09 25.796-9.27 36.874-6.18 11.124-15.038 19.89-26.574 26.3-11.582 6.409-25.04 9.613-40.376 9.613-15.793 0-29.527-2.815-41.2-8.446-11.673-5.585-22.317-13.527-31.93-23.827l21.973-24.034c8.24 7.324 16.137 12.932 23.69 16.824 7.553 3.891 15.793 5.837 24.72 5.836 10.529 0 18.723-3.273 24.583-9.819 5.814-6.5 8.721-15.358 8.72-26.574 0-9.842-2.564-17.922-7.69-24.239-0.031-0.037-0.061-0.074-0.092-0.111h51.198c1.499 6.478 2.248 13.679 2.248 21.603zM394.524 174.07c0 22.889-7.736 39.941-23.209 51.157-15.427 11.216-36.416 16.823-62.967 16.823h-59.74l0-89.24h43.603v56.28h16.48c13.276 0 23.347-2.815 30.213-8.446 6.867-5.585 10.3-15.015 10.3-28.291 0-7.678-1.072-14.193-3.216-19.543l45.741 0c1.864 6.184 2.796 13.271 2.795 21.26zM248.608 4.807h51.843c27.238 0 48.296 5.15 63.173 15.45 14.878 10.3 22.317 25.292 22.317 44.976 0 11.41-2.756 21.129-8.268 29.157h-44.842c5.88-5.607 8.82-14.067 8.82-25.38 0-11.216-2.93-19.341-8.789-24.377-5.814-5.036-15.13-7.553-27.948-7.553h-12.703v57.31l-43.603 0z" fill="#ffffff" fill-rule="nonzero" stroke="none" stroke-width="1" stroke-linecap="butt" stroke-linejoin="miter" stroke-miterlimit="10" stroke-dasharray="" stroke-dashoffset="0" font-family="none" font-weight="none" font-size="none" text-anchor="none" style="mix-blend-mode: normal" data-fill-palette-color="tertiary"></path></g></g><g transform="matrix(1,0,0,1,0,99.48332785411495)"><svg viewBox="0 0 395.52 48.23334429177011" height="48.23334429177011" width="395.52"><g><svg viewBox="0 0 395.52 48.23334429177011" height="48.23334429177011" width="395.52"><g><svg viewBox="0 0 473.7303569838045 57.77103410665201" height="48.23334429177011" width="395.52"><g transform="matrix(1,0,0,1,0,7.984274612424411)"><svg viewBox="0 0 395.52 41.80248488180319" height="41.80248488180319" width="395.52"><g><svg viewBox="0 0 395.52 41.80248488180319" height="41.80248488180319" width="395.52"><g><svg viewBox="0 0 395.52 41.80248488180319" height="41.80248488180319" width="395.52"><g transform="matrix(1,0,0,1,0,0)"><svg width="395.52" viewBox="0.35 -37.7 363.76 38.45" height="41.80248488180319" data-palette-color="#ffffff"><path d="M11.75-35.25Q14.75-35.25 17.05-34.2 19.35-33.15 21.3-31.05L21.3-31.05 18.35-27.65Q16.8-29.05 15.33-29.75 13.85-30.45 12.2-30.45L12.2-30.45Q10.3-30.45 9.2-29.28 8.1-28.1 8.1-26.2L8.1-26.2Q8.1-24.3 9.25-23.1 10.4-21.9 13.75-20.6L13.75-20.6Q18.05-18.85 20.08-16.5 22.1-14.15 22.1-9.85L22.1-9.85Q22.1-6.9 20.75-4.48 19.4-2.05 16.88-0.65 14.35 0.75 11 0.75L11 0.75Q7.55 0.75 5-0.48 2.45-1.7 0.35-3.95L0.35-3.95 3.55-7.45Q5.35-5.85 7-5 8.65-4.15 10.6-4.15L10.6-4.15Q12.9-4.15 14.18-5.58 15.45-7 15.45-9.45L15.45-9.45Q15.45-11.6 14.33-12.98 13.2-14.35 10.15-15.5L10.15-15.5Q5.55-17.35 3.53-19.75 1.5-22.15 1.5-25.75L1.5-25.75Q1.5-28.5 2.83-30.65 4.15-32.8 6.5-34.02 8.85-35.25 11.75-35.25L11.75-35.25ZM48.2 0L41.75 0 40.05-8.1 31.15-8.1 29.5 0 23.15 0 31.85-34.55 39.55-34.55 48.2 0ZM35.6-29.7L32.15-12.9 39.1-12.9 35.6-29.7ZM51.09-34.55L57.45-34.55 57.45-5.25 68.59-5.25 67.89 0 51.09 0 51.09-34.55ZM71.94-34.55L78.29-34.55 78.29 0 71.94 0 71.94-34.55ZM110.34-34.55L112.54 0 106.49 0 105.89-14.6Q105.59-22.6 105.59-26L105.59-26 105.64-28.6 100.89-3.8 94.89-3.8 89.94-28.65Q89.99-27.15 89.99-24.05L89.99-24.05Q89.99-18.8 89.79-14.4L89.79-14.4 89.24 0 83.29 0 85.49-34.55 93.49-34.55 97.99-10.2 102.19-34.55 110.34-34.55ZM141.39-18.3Q144.74-17.55 146.66-15.63 148.59-13.7 148.59-9.9L148.59-9.9Q148.59-4.9 145.21-2.45 141.84 0 136.03 0L136.03 0 127.34 0 127.34-34.55 134.89-34.55Q140.84-34.55 144.09-32.3 147.34-30.05 147.34-25.75L147.34-25.75Q147.34-22.85 145.71-20.95 144.09-19.05 141.39-18.3L141.39-18.3ZM135.53-29.85L133.69-29.85 133.69-20.3 135.84-20.3Q140.89-20.3 140.89-25.2L140.89-25.2Q140.89-27.65 139.61-28.75 138.34-29.85 135.53-29.85L135.53-29.85ZM136.09-4.8Q138.99-4.8 140.49-6.03 141.99-7.25 141.99-10.15L141.99-10.15Q141.99-13.05 140.59-14.43 139.19-15.8 136.24-15.8L136.24-15.8 133.69-15.8 133.69-4.8 136.09-4.8ZM169.48-6.4Q169.48-5.1 169.83-4.48 170.18-3.85 170.98-3.45L170.98-3.45 169.73 0.65Q167.68 0.4 166.46-0.45 165.23-1.3 164.63-3.05L164.63-3.05Q162.33 0.75 158.18 0.75L158.18 0.75Q154.88 0.75 152.93-1.48 150.98-3.7 150.98-7.4L150.98-7.4Q150.98-11.7 153.66-13.95 156.33-16.2 161.43-16.2L161.43-16.2 163.48-16.2 163.48-18.05Q163.48-20.55 162.61-21.58 161.73-22.6 159.78-22.6L159.78-22.6Q157.43-22.6 153.93-21.3L153.93-21.3 152.53-25.3Q154.53-26.2 156.68-26.68 158.83-27.15 160.78-27.15L160.78-27.15Q169.48-27.15 169.48-18.35L169.48-18.35 169.48-6.4ZM159.83-3.7Q162.23-3.7 163.48-7L163.48-7 163.48-12.55 162.03-12.55Q159.48-12.55 158.31-11.4 157.13-10.25 157.13-7.85L157.13-7.85Q157.13-5.8 157.83-4.75 158.53-3.7 159.83-3.7L159.83-3.7ZM198.93-27.15Q201.58-27.15 203.18-25.1 204.78-23.05 204.78-19.6L204.78-19.6 204.78 0 198.73 0 198.73-18.95Q198.73-20.85 198.23-21.68 197.73-22.5 196.78-22.5L196.78-22.5Q194.83-22.5 193.03-18.8L193.03-18.8 193.03 0 187.03 0 187.03-18.95Q187.03-22.5 185.13-22.5L185.13-22.5Q183.08-22.5 181.33-18.8L181.33-18.8 181.33 0 175.28 0 175.28-26.45 180.63-26.45 181.03-23.05Q183.63-27.15 187.28-27.15L187.28-27.15Q189.13-27.15 190.48-26 191.83-24.85 192.53-22.75L192.53-22.75Q195.18-27.15 198.93-27.15L198.93-27.15ZM227.18-6.4Q227.18-5.1 227.53-4.48 227.88-3.85 228.68-3.45L228.68-3.45 227.43 0.65Q225.38 0.4 224.15-0.45 222.93-1.3 222.33-3.05L222.33-3.05Q220.03 0.75 215.88 0.75L215.88 0.75Q212.58 0.75 210.63-1.48 208.68-3.7 208.68-7.4L208.68-7.4Q208.68-11.7 211.35-13.95 214.03-16.2 219.13-16.2L219.13-16.2 221.18-16.2 221.18-18.05Q221.18-20.55 220.3-21.58 219.43-22.6 217.48-22.6L217.48-22.6Q215.13-22.6 211.63-21.3L211.63-21.3 210.23-25.3Q212.23-26.2 214.38-26.68 216.53-27.15 218.48-27.15L218.48-27.15Q227.18-27.15 227.18-18.35L227.18-18.35 227.18-6.4ZM217.53-3.7Q219.93-3.7 221.18-7L221.18-7 221.18-12.55 219.73-12.55Q217.18-12.55 216-11.4 214.83-10.25 214.83-7.85L214.83-7.85Q214.83-5.8 215.53-4.75 216.23-3.7 217.53-3.7L217.53-3.7ZM245.32-27.15Q248.18-27.15 249.82-25.1 251.47-23.05 251.47-19.6L251.47-19.6 251.47 0 245.32 0 245.32-18.9Q245.32-20.8 244.8-21.63 244.28-22.45 243.28-22.45L243.28-22.45Q241.18-22.45 239.13-18.5L239.13-18.5 239.13 0 232.97 0 232.97-37 239.13-37.65 239.13-23.3Q240.38-25.25 241.85-26.2 243.32-27.15 245.32-27.15L245.32-27.15ZM266.72-33.05Q265.32-33.05 264.65-32.3 263.97-31.55 263.97-30L263.97-30 263.97-26.45 269.02-26.45 268.32-22 263.97-22 263.97 0 257.82 0 257.82-22 254.52-22 254.52-26.45 257.82-26.45 257.82-29.8Q257.82-33.4 259.92-35.55 262.02-37.7 265.92-37.7L265.92-37.7Q268.97-37.7 271.82-36.2L271.82-36.2 270.12-32.2Q268.37-33.05 266.72-33.05L266.72-33.05ZM281.22-27.15Q286.22-27.15 289-23.65 291.77-20.15 291.77-13.25L291.77-13.25Q291.77-6.65 288.97-2.95 286.17 0.75 281.22 0.75L281.22 0.75Q276.27 0.75 273.47-2.88 270.67-6.5 270.67-13.25L270.67-13.25Q270.67-19.95 273.47-23.55 276.27-27.15 281.22-27.15L281.22-27.15ZM281.22-22.5Q279.07-22.5 278.07-20.38 277.07-18.25 277.07-13.25L277.07-13.25Q277.07-8.2 278.07-6.08 279.07-3.95 281.22-3.95L281.22-3.95Q283.37-3.95 284.37-6.08 285.37-8.2 285.37-13.25L285.37-13.25Q285.37-18.3 284.37-20.4 283.37-22.5 281.22-22.5L281.22-22.5ZM305.72-27.15Q310.72-27.15 313.49-23.65 316.27-20.15 316.27-13.25L316.27-13.25Q316.27-6.65 313.47-2.95 310.67 0.75 305.72 0.75L305.72 0.75Q300.77 0.75 297.97-2.88 295.17-6.5 295.17-13.25L295.17-13.25Q295.17-19.95 297.97-23.55 300.77-27.15 305.72-27.15L305.72-27.15ZM305.72-22.5Q303.57-22.5 302.57-20.38 301.57-18.25 301.57-13.25L301.57-13.25Q301.57-8.2 302.57-6.08 303.57-3.95 305.72-3.95L305.72-3.95Q307.87-3.95 308.87-6.08 309.87-8.2 309.87-13.25L309.87-13.25Q309.87-18.3 308.87-20.4 307.87-22.5 305.72-22.5L305.72-22.5ZM333.77-37.7L339.92-37.05 339.92 0 334.47 0 334.17-3.05Q331.82 0.75 328.12 0.75L328.12 0.75Q324.02 0.75 321.84-2.93 319.67-6.6 319.67-13.2L319.67-13.2Q319.67-17.4 320.79-20.58 321.92-23.75 323.92-25.45 325.92-27.15 328.52-27.15L328.52-27.15Q331.72-27.15 333.77-24.5L333.77-24.5 333.77-37.7ZM329.87-3.9Q331.02-3.9 331.94-4.7 332.87-5.5 333.77-7L333.77-7 333.77-19.85Q332.17-22.55 330.12-22.55L330.12-22.55Q326.07-22.55 326.07-13.25L326.07-13.25Q326.07-8.2 327.07-6.05 328.07-3.9 329.87-3.9L329.87-3.9ZM357.96-27.15Q360.81-27.15 362.46-25.1 364.11-23.05 364.11-19.6L364.11-19.6 364.11 0 357.96 0 357.96-18.9Q357.96-20.8 357.44-21.63 356.91-22.45 355.91-22.45L355.91-22.45Q353.81-22.45 351.76-18.5L351.76-18.5 351.76 0 345.61 0 345.61-37 351.76-37.65 351.76-23.3Q353.01-25.25 354.49-26.2 355.96-27.15 357.96-27.15L357.96-27.15Z" opacity="1" transform="matrix(1,0,0,1,0,0)" fill="#ffffff" class="undefined-text-0" data-fill-palette-color="primary" id="text-0"></path></svg></g></svg></g></svg></g></svg></g><g transform="matrix(1,0,0,1,401.61998580389223,0)"><svg viewBox="0 0 72.11037117991224 57.77103410665201" height="57.77103410665201" width="72.11037117991224"><g><svg  xmlns:xlink="http://www.w3.org/1999/xlink" version="1.1" x="0" y="0" viewBox="2.1529999999999996 12.18 95 76.10900000000001" enable-background="new 0 0 100 100" xml:space="preserve" height="57.77103410665201" width="72.11037117991224" class="icon-icon-0" data-fill-palette-color="accent" id="icon-0"><g fill="#ffffff" data-fill-palette-color="accent"><circle fill="none" cx="49.651" cy="72.829" r="1.8"></circle><path fill="none" d="M6.159 65.021h86.985V15.996H6.159V65.021zM56.586 46.886l11.51-4.933v-0.062l-11.51-4.932V33.67l14.891 6.825v2.854l-14.891 6.825V46.886zM51.652 28.924h3.133l-6.639 22.49h-3.132-0.001L51.652 28.924zM27.825 43.256v-2.668l14.89-6.918v3.289l-11.26 4.932v0.062l11.26 4.933v3.288L27.825 43.256 27.825 43.256z"></path><path d="M94.318 12.18h-43.88-1.495H5.063c-1.563 0-2.91 1.188-2.91 2.752v54.092 0.188 5.013 0.313c0 1.563 1.347 2.877 2.91 2.877h35.146c-0.041 0.896-0.321 4.753-2.155 6.623-1.445 1.474-3.453 2.854-2.669 3.563 0.19 0.436 1.091 0.688 3.14 0.688 4.521 0 9.416 0 11.208 0 0.453 0 0.707 0 0.707 0 1.791 0 6.688 0 11.207 0 2.334 0 3.15-0.382 3.158-0.953h-0.08v-0.188h-0.082c-0.104-0.771-1.662-1.907-2.84-3.105-1.834-1.87-2.113-5.727-2.154-6.623h34.674c1.564 0 2.83-1.313 2.83-2.877v-0.314-5.012-0.189V14.934C97.15 13.368 95.883 12.18 94.318 12.18zM49.651 74.676c-1.021 0-1.847-0.824-1.847-1.846s0.826-1.848 1.847-1.848c1.02 0 1.847 0.826 1.847 1.848C51.499 73.852 50.671 74.676 49.651 74.676zM93.145 65.021H6.159V15.996h86.985V65.021z" fill="#ffffff" data-fill-palette-color="accent"></path><polygon points="42.715,46.886 31.455,41.953 31.455,41.891 42.715,36.959 42.715,33.67 27.825,40.588 27.825,43.256    27.825,43.257 42.715,50.174  " fill="#ffffff" data-fill-palette-color="accent"></polygon><polygon points="48.146,51.414 54.785,28.924 51.652,28.924 45.013,51.414 45.014,51.414  " fill="#ffffff" data-fill-palette-color="accent"></polygon><polygon points="71.477,40.495 56.586,33.67 56.586,36.959 68.096,41.891 68.096,41.953 56.586,46.886 56.586,50.174    71.477,43.349  " fill="#ffffff" data-fill-palette-color="accent"></polygon></g></svg></g></svg></g></svg></g></svg></g></svg></g></svg></g><defs></defs></svg><rect width="395.52" height="247.2" fill="none" stroke="none" visibility="hidden"></rect></g></svg></g></svg>